<svg id="Calque_1" data-name="Calque 1" xmlns="http://www.w3.org/2000/svg" viewBox="0 0 90 90"><defs><style>.cls-1{fill:#239e86;}</style></defs><title>play</title><g id="Page-1"><g id="noun_29012_cc" data-name="noun 29012 cc"><path id="Shape" class="cls-1" d="M45,0A45,45,0,1,0,90,45,45,45,0,0,0,45,0h0Zm0,84A39,39,0,1,1,84,45,39,39,0,0,1,45,84h0Z" transform="translate(0 0)"/><path id="Shape-2" class="cls-1" d="M30,26c0-2.2,1.57-3.12,3.49-2L67.55,43c1.92,1.08,1.92,2.84,0,3.91L33.53,66c-1.92,1.12-3.53.2-3.53-2V26h0Z" transform="translate(0 0)"/></g></g></svg>